<svg width="16" height="16" viewBox="0 0 16 16" fill="none" xmlns="http://www.w3.org/2000/svg">
<path d="M3.00601 7.98497C3.00601 8.05406 3.00601 8.12015 3.00901 8.18623C3.00901 8.24631 3.01202 8.30639 3.01502 8.36646C3.02403 8.49563 3.03605 8.62179 3.05107 8.74495C3.05707 8.79301 3.06308 8.84108 3.07209 8.88613C3.09312 9.04834 3.12316 9.20755 3.15921 9.36075C3.17422 9.42383 3.18924 9.48691 3.20426 9.54699C3.23731 9.66714 3.27035 9.78429 3.3064 9.89844C3.3064 9.90445 3.3094 9.91046 3.3124 9.91947C3.37248 10.1027 3.44157 10.2799 3.51667 10.4542C3.5407 10.5142 3.56773 10.5713 3.59477 10.6284C3.64583 10.7395 3.70291 10.8477 3.76298 10.9558C3.76298 10.9618 3.76899 10.9708 3.775 10.9798C3.80504 11.0309 3.83207 11.082 3.86211 11.13C3.89215 11.1841 3.92519 11.2382 3.96124 11.2892C3.99428 11.3433 4.03033 11.3944 4.06638 11.4484C4.16851 11.6016 4.27965 11.7488 4.3968 11.893C4.3968 11.899 4.40281 11.905 4.41182 11.914C4.48992 12.0072 4.56802 12.0973 4.64913 12.1874C4.69118 12.2355 4.73624 12.2805 4.7783 12.3226C4.81434 12.3586 4.85039 12.3947 4.88643 12.4277C4.92248 12.4638 4.95853 12.4968 4.99758 12.5298C5.0156 12.5479 5.03362 12.5629 5.05465 12.5809C5.08769 12.6109 5.11773 12.638 5.15078 12.665C5.18983 12.6981 5.22888 12.7281 5.26492 12.7611C5.328 12.8122 5.39109 12.8633 5.45417 12.9113C5.50223 12.9474 5.54128 12.9774 5.58634 13.0075C5.65543 13.0585 5.72752 13.1096 5.79961 13.1546C5.66444 12.8543 5.57132 12.5328 5.52025 12.1964C5.48721 11.9651 5.29196 11.7909 5.05465 11.7909H4.8564C4.81134 11.5626 4.78731 11.3313 4.7813 11.094C4.7813 11.0579 4.78731 10.9378 4.78731 10.9378L5.22287 10.8597C5.43614 10.8206 5.61037 10.6674 5.67345 10.4632C5.75456 10.2078 5.65843 9.92848 5.43915 9.77228L5.03062 9.48691C5.13876 9.17751 5.27994 8.88613 5.45717 8.61579L6.11202 8.92218C6.29525 9.00629 6.51153 9.00629 6.68576 8.90416C6.95911 8.74195 7.05523 8.40852 6.92607 8.12916L6.58663 7.40222C6.9531 7.13187 7.36463 6.91859 7.80921 6.77441L8.3469 7.70861C8.41899 7.83478 8.54215 7.92489 8.68634 7.94292C8.95669 7.97596 9.18498 7.76569 9.18498 7.50135V1.79999C5.76957 1.79999 3 4.56956 3 7.98497H3.00601Z" fill="#000000"/>
<path d="M12.9965 10.364C12.9965 12.4247 11.3594 14.1038 9.31375 14.1669C9.2717 14.1669 9.23265 14.1699 9.19059 14.1699C9.14854 14.1699 9.10949 14.1699 9.06743 14.1669C7.81181 14.1038 6.81152 13.0645 6.81152 11.7909C6.81152 10.5172 7.8779 9.41179 9.19059 9.41179C9.23866 9.41179 9.28672 9.41179 9.33778 9.40579C9.36182 9.40579 9.38585 9.39978 9.40988 9.39678C9.41288 9.39678 9.41889 9.39678 9.4249 9.39678C10.1578 9.28563 10.7196 8.65181 10.7196 7.88883C10.7196 7.39619 10.4823 6.95462 10.1188 6.67526C11.7739 7.08679 12.9995 8.58272 12.9995 10.367L12.9965 10.364Z" fill="#000000"/>
</svg>
